<svg xmlns="http://www.w3.org/2000/svg" viewBox="0 0 400 450" width="400" height="450" style="display:block; background-color:#0B0E23;">
    <rect width="400" height="450" rx="24" fill="#0B0E23" />
    <circle cx="108.54" cy="17.08" r="4.47" fill="#3B82F6" />
    <circle cx="128.86" cy="17.08" r="4.47" fill="#3B82F6" />
    <circle cx="159.35" cy="17.08" r="4.47" fill="#3B82F6" />
    <circle cx="169.51" cy="17.08" r="4.47" fill="#3B82F6" />
    <circle cx="230.49" cy="17.08" r="4.47" fill="#3B82F6" />
    <circle cx="240.65" cy="17.08" r="4.47" fill="#3B82F6" />
    <circle cx="250.81" cy="17.08" r="4.47" fill="#3B82F6" />
    <circle cx="260.97" cy="17.08" r="4.47" fill="#3B82F6" />
    <circle cx="271.14" cy="17.08" r="4.47" fill="#3B82F6" />
    <circle cx="301.62" cy="17.08" r="4.47" fill="#3B82F6" />
    <circle cx="118.70" cy="27.24" r="4.47" fill="#3B82F6" />
    <circle cx="139.03" cy="27.24" r="4.47" fill="#3B82F6" />
    <circle cx="149.19" cy="27.24" r="4.47" fill="#3B82F6" />
    <circle cx="159.35" cy="27.24" r="4.47" fill="#3B82F6" />
    <circle cx="200.00" cy="27.24" r="4.47" fill="#3B82F6" />
    <circle cx="220.32" cy="27.24" r="4.47" fill="#3B82F6" />
    <circle cx="230.49" cy="27.24" r="4.47" fill="#3B82F6" />
    <circle cx="281.30" cy="27.24" r="4.47" fill="#3B82F6" />
    <circle cx="301.62" cy="27.24" r="4.47" fill="#3B82F6" />
    <circle cx="108.54" cy="37.41" r="4.47" fill="#3B82F6" />
    <circle cx="118.70" cy="37.41" r="4.47" fill="#3B82F6" />
    <circle cx="139.03" cy="37.41" r="4.47" fill="#3B82F6" />
    <circle cx="149.19" cy="37.41" r="4.47" fill="#3B82F6" />
    <circle cx="159.35" cy="37.41" r="4.47" fill="#3B82F6" />
    <circle cx="179.68" cy="37.41" r="4.47" fill="#3B82F6" />
    <circle cx="189.84" cy="37.41" r="4.47" fill="#3B82F6" />
    <circle cx="210.16" cy="37.41" r="4.47" fill="#3B82F6" />
    <circle cx="260.97" cy="37.41" r="4.47" fill="#3B82F6" />
    <circle cx="271.14" cy="37.41" r="4.47" fill="#3B82F6" />
    <circle cx="281.30" cy="37.41" r="4.47" fill="#3B82F6" />
    <circle cx="108.54" cy="47.57" r="4.47" fill="#3B82F6" />
    <circle cx="139.03" cy="47.57" r="4.47" fill="#3B82F6" />
    <circle cx="149.19" cy="47.57" r="4.47" fill="#3B82F6" />
    <circle cx="159.35" cy="47.57" r="4.47" fill="#3B82F6" />
    <circle cx="169.51" cy="47.57" r="4.47" fill="#3B82F6" />
    <circle cx="179.68" cy="47.57" r="4.47" fill="#3B82F6" />
    <circle cx="200.00" cy="47.57" r="4.47" fill="#3B82F6" />
    <circle cx="210.16" cy="47.57" r="4.47" fill="#3B82F6" />
    <circle cx="220.32" cy="47.57" r="4.47" fill="#3B82F6" />
    <circle cx="230.49" cy="47.57" r="4.47" fill="#3B82F6" />
    <circle cx="240.65" cy="47.57" r="4.47" fill="#3B82F6" />
    <circle cx="250.81" cy="47.57" r="4.47" fill="#3B82F6" />
    <circle cx="260.97" cy="47.57" r="4.47" fill="#3B82F6" />
    <circle cx="271.14" cy="47.57" r="4.47" fill="#3B82F6" />
    <circle cx="281.30" cy="47.57" r="4.47" fill="#3B82F6" />
    <circle cx="98.38" cy="57.73" r="4.47" fill="#3B82F6" />
    <circle cx="108.54" cy="57.73" r="4.47" fill="#3B82F6" />
    <circle cx="118.70" cy="57.73" r="4.47" fill="#3B82F6" />
    <circle cx="128.86" cy="57.73" r="4.47" fill="#3B82F6" />
    <circle cx="139.03" cy="57.73" r="4.47" fill="#3B82F6" />
    <circle cx="179.68" cy="57.73" r="4.47" fill="#3B82F6" />
    <circle cx="189.84" cy="57.73" r="4.47" fill="#3B82F6" />
    <circle cx="220.32" cy="57.73" r="4.47" fill="#3B82F6" />
    <circle cx="230.49" cy="57.73" r="4.47" fill="#3B82F6" />
    <circle cx="250.81" cy="57.73" r="4.47" fill="#3B82F6" />
    <circle cx="281.30" cy="57.73" r="4.47" fill="#3B82F6" />
    <circle cx="291.46" cy="57.73" r="4.47" fill="#3B82F6" />
    <circle cx="108.54" cy="67.89" r="4.47" fill="#3B82F6" />
    <circle cx="118.70" cy="67.89" r="4.47" fill="#3B82F6" />
    <circle cx="128.86" cy="67.89" r="4.47" fill="#3B82F6" />
    <circle cx="139.03" cy="67.89" r="4.47" fill="#3B82F6" />
    <circle cx="149.19" cy="67.89" r="4.47" fill="#3B82F6" />
    <circle cx="159.35" cy="67.89" r="4.47" fill="#3B82F6" />
    <circle cx="169.51" cy="67.89" r="4.47" fill="#3B82F6" />
    <circle cx="220.32" cy="67.89" r="4.47" fill="#3B82F6" />
    <circle cx="271.14" cy="67.89" r="4.47" fill="#3B82F6" />
    <circle cx="98.38" cy="78.05" r="4.47" fill="#3B82F6" />
    <circle cx="118.70" cy="78.05" r="4.47" fill="#3B82F6" />
    <circle cx="139.03" cy="78.05" r="4.47" fill="#3B82F6" />
    <circle cx="159.35" cy="78.05" r="4.47" fill="#3B82F6" />
    <circle cx="179.68" cy="78.05" r="4.47" fill="#3B82F6" />
    <circle cx="200.00" cy="78.05" r="4.47" fill="#3B82F6" />
    <circle cx="220.32" cy="78.05" r="4.47" fill="#3B82F6" />
    <circle cx="240.65" cy="78.05" r="4.47" fill="#3B82F6" />
    <circle cx="260.97" cy="78.05" r="4.47" fill="#3B82F6" />
    <circle cx="281.30" cy="78.05" r="4.47" fill="#3B82F6" />
    <circle cx="301.62" cy="78.05" r="4.47" fill="#3B82F6" />
    <circle cx="98.38" cy="88.22" r="4.47" fill="#3B82F6" />
    <circle cx="108.54" cy="88.22" r="4.47" fill="#3B82F6" />
    <circle cx="118.70" cy="88.22" r="4.47" fill="#3B82F6" />
    <circle cx="149.19" cy="88.22" r="4.47" fill="#3B82F6" />
    <circle cx="159.35" cy="88.22" r="4.47" fill="#3B82F6" />
    <circle cx="179.68" cy="88.22" r="4.47" fill="#3B82F6" />
    <circle cx="189.84" cy="88.22" r="4.47" fill="#3B82F6" />
    <circle cx="250.81" cy="88.22" r="4.47" fill="#3B82F6" />
    <circle cx="260.97" cy="88.22" r="4.47" fill="#3B82F6" />
    <circle cx="291.46" cy="88.22" r="4.47" fill="#3B82F6" />
    <circle cx="301.62" cy="88.22" r="4.47" fill="#3B82F6" />
    <circle cx="37.41" cy="98.38" r="4.47" fill="#3B82F6" />
    <circle cx="47.57" cy="98.38" r="4.47" fill="#3B82F6" />
    <circle cx="78.05" cy="98.38" r="4.47" fill="#3B82F6" />
    <circle cx="88.22" cy="98.38" r="4.47" fill="#3B82F6" />
    <circle cx="98.38" cy="98.38" r="4.47" fill="#3B82F6" />
    <circle cx="108.54" cy="98.38" r="4.47" fill="#3B82F6" />
    <circle cx="118.70" cy="98.38" r="4.47" fill="#3B82F6" />
    <circle cx="128.86" cy="98.38" r="4.47" fill="#3B82F6" />
    <circle cx="139.03" cy="98.38" r="4.47" fill="#3B82F6" />
    <circle cx="159.35" cy="98.38" r="4.47" fill="#3B82F6" />
    <circle cx="169.51" cy="98.38" r="4.47" fill="#3B82F6" />
    <circle cx="179.68" cy="98.38" r="4.47" fill="#3B82F6" />
    <circle cx="189.84" cy="98.38" r="4.47" fill="#3B82F6" />
    <circle cx="200.00" cy="98.38" r="4.47" fill="#3B82F6" />
    <circle cx="220.32" cy="98.38" r="4.47" fill="#3B82F6" />
    <circle cx="250.81" cy="98.38" r="4.47" fill="#3B82F6" />
    <circle cx="260.97" cy="98.38" r="4.47" fill="#3B82F6" />
    <circle cx="271.14" cy="98.38" r="4.47" fill="#3B82F6" />
    <circle cx="291.46" cy="98.38" r="4.47" fill="#3B82F6" />
    <circle cx="301.62" cy="98.38" r="4.47" fill="#3B82F6" />
    <circle cx="311.78" cy="98.38" r="4.47" fill="#3B82F6" />
    <circle cx="321.95" cy="98.38" r="4.47" fill="#3B82F6" />
    <circle cx="342.27" cy="98.38" r="4.47" fill="#3B82F6" />
    <circle cx="27.24" cy="108.54" r="4.47" fill="#3B82F6" />
    <circle cx="37.41" cy="108.54" r="4.47" fill="#3B82F6" />
    <circle cx="57.73" cy="108.54" r="4.47" fill="#3B82F6" />
    <circle cx="67.89" cy="108.54" r="4.47" fill="#3B82F6" />
    <circle cx="88.22" cy="108.54" r="4.47" fill="#3B82F6" />
    <circle cx="98.38" cy="108.54" r="4.47" fill="#3B82F6" />
    <circle cx="118.70" cy="108.54" r="4.47" fill="#3B82F6" />
    <circle cx="128.86" cy="108.54" r="4.47" fill="#3B82F6" />
    <circle cx="169.51" cy="108.54" r="4.47" fill="#3B82F6" />
    <circle cx="179.68" cy="108.54" r="4.47" fill="#3B82F6" />
    <circle cx="189.84" cy="108.54" r="4.47" fill="#3B82F6" />
    <circle cx="200.00" cy="108.54" r="4.47" fill="#3B82F6" />
    <circle cx="220.32" cy="108.54" r="4.47" fill="#3B82F6" />
    <circle cx="230.49" cy="108.54" r="4.47" fill="#3B82F6" />
    <circle cx="240.65" cy="108.54" r="4.47" fill="#3B82F6" />
    <circle cx="271.14" cy="108.54" r="4.47" fill="#3B82F6" />
    <circle cx="281.30" cy="108.54" r="4.47" fill="#3B82F6" />
    <circle cx="291.46" cy="108.54" r="4.47" fill="#3B82F6" />
    <circle cx="301.62" cy="108.54" r="4.47" fill="#3B82F6" />
    <circle cx="321.95" cy="108.54" r="4.47" fill="#3B82F6" />
    <circle cx="352.43" cy="108.54" r="4.47" fill="#3B82F6" />
    <circle cx="17.08" cy="118.70" r="4.47" fill="#3B82F6" />
    <circle cx="47.57" cy="118.70" r="4.47" fill="#3B82F6" />
    <circle cx="57.73" cy="118.70" r="4.47" fill="#3B82F6" />
    <circle cx="67.89" cy="118.70" r="4.47" fill="#3B82F6" />
    <circle cx="78.05" cy="118.70" r="4.47" fill="#3B82F6" />
    <circle cx="98.38" cy="118.70" r="4.47" fill="#3B82F6" />
    <circle cx="118.70" cy="118.70" r="4.47" fill="#3B82F6" />
    <circle cx="128.86" cy="118.70" r="4.47" fill="#3B82F6" />
    <circle cx="139.03" cy="118.70" r="4.47" fill="#3B82F6" />
    <circle cx="159.35" cy="118.70" r="4.47" fill="#3B82F6" />
    <circle cx="169.51" cy="118.70" r="4.47" fill="#3B82F6" />
    <circle cx="200.00" cy="118.70" r="4.47" fill="#3B82F6" />
    <circle cx="271.14" cy="118.70" r="4.47" fill="#3B82F6" />
    <circle cx="291.46" cy="118.70" r="4.47" fill="#3B82F6" />
    <circle cx="311.78" cy="118.70" r="4.47" fill="#3B82F6" />
    <circle cx="332.11" cy="118.70" r="4.47" fill="#3B82F6" />
    <circle cx="342.27" cy="118.70" r="4.47" fill="#3B82F6" />
    <circle cx="362.59" cy="118.70" r="4.47" fill="#3B82F6" />
    <circle cx="17.08" cy="128.86" r="4.47" fill="#3B82F6" />
    <circle cx="98.38" cy="128.86" r="4.47" fill="#3B82F6" />
    <circle cx="108.54" cy="128.86" r="4.47" fill="#3B82F6" />
    <circle cx="139.03" cy="128.86" r="4.47" fill="#3B82F6" />
    <circle cx="159.35" cy="128.86" r="4.47" fill="#3B82F6" />
    <circle cx="169.51" cy="128.86" r="4.47" fill="#3B82F6" />
    <circle cx="179.68" cy="128.86" r="4.47" fill="#3B82F6" />
    <circle cx="240.65" cy="128.86" r="4.47" fill="#3B82F6" />
    <circle cx="250.81" cy="128.86" r="4.47" fill="#3B82F6" />
    <circle cx="260.97" cy="128.86" r="4.47" fill="#3B82F6" />
    <circle cx="271.14" cy="128.86" r="4.47" fill="#3B82F6" />
    <circle cx="281.30" cy="128.86" r="4.47" fill="#3B82F6" />
    <circle cx="291.46" cy="128.86" r="4.47" fill="#3B82F6" />
    <circle cx="332.11" cy="128.86" r="4.47" fill="#3B82F6" />
    <circle cx="342.27" cy="128.86" r="4.47" fill="#3B82F6" />
    <circle cx="352.43" cy="128.86" r="4.47" fill="#3B82F6" />
    <circle cx="362.59" cy="128.86" r="4.47" fill="#3B82F6" />
    <circle cx="382.92" cy="128.86" r="4.47" fill="#3B82F6" />
    <circle cx="17.08" cy="139.03" r="4.47" fill="#3B82F6" />
    <circle cx="47.57" cy="139.03" r="4.47" fill="#3B82F6" />
    <circle cx="78.05" cy="139.03" r="4.47" fill="#3B82F6" />
    <circle cx="108.54" cy="139.03" r="4.47" fill="#3B82F6" />
    <circle cx="139.03" cy="139.03" r="4.47" fill="#3B82F6" />
    <circle cx="159.35" cy="139.03" r="4.47" fill="#3B82F6" />
    <circle cx="179.68" cy="139.03" r="4.47" fill="#3B82F6" />
    <circle cx="230.49" cy="139.03" r="4.47" fill="#3B82F6" />
    <circle cx="250.81" cy="139.03" r="4.47" fill="#3B82F6" />
    <circle cx="271.14" cy="139.03" r="4.47" fill="#3B82F6" />
    <circle cx="281.30" cy="139.03" r="4.47" fill="#3B82F6" />
    <circle cx="311.78" cy="139.03" r="4.47" fill="#3B82F6" />
    <circle cx="321.95" cy="139.03" r="4.47" fill="#3B82F6" />
    <circle cx="342.27" cy="139.03" r="4.47" fill="#3B82F6" />
    <circle cx="352.43" cy="139.03" r="4.47" fill="#3B82F6" />
    <circle cx="362.59" cy="139.03" r="4.47" fill="#3B82F6" />
    <circle cx="382.92" cy="139.03" r="4.47" fill="#3B82F6" />
    <circle cx="27.24" cy="149.19" r="4.47" fill="#3B82F6" />
    <circle cx="37.41" cy="149.19" r="4.47" fill="#3B82F6" />
    <circle cx="108.54" cy="149.19" r="4.47" fill="#3B82F6" />
    <circle cx="128.86" cy="149.19" r="4.47" fill="#3B82F6" />
    <circle cx="139.03" cy="149.19" r="4.47" fill="#3B82F6" />
    <circle cx="271.14" cy="149.19" r="4.47" fill="#3B82F6" />
    <circle cx="281.30" cy="149.19" r="4.47" fill="#3B82F6" />
    <circle cx="291.46" cy="149.19" r="4.47" fill="#3B82F6" />
    <circle cx="301.62" cy="149.19" r="4.47" fill="#3B82F6" />
    <circle cx="321.95" cy="149.19" r="4.47" fill="#3B82F6" />
    <circle cx="332.11" cy="149.19" r="4.47" fill="#3B82F6" />
    <circle cx="342.27" cy="149.19" r="4.47" fill="#3B82F6" />
    <circle cx="362.59" cy="149.19" r="4.47" fill="#3B82F6" />
    <circle cx="372.76" cy="149.19" r="4.47" fill="#3B82F6" />
    <circle cx="382.92" cy="149.19" r="4.47" fill="#3B82F6" />
    <circle cx="37.41" cy="159.35" r="4.47" fill="#3B82F6" />
    <circle cx="67.89" cy="159.35" r="4.47" fill="#3B82F6" />
    <circle cx="78.05" cy="159.35" r="4.47" fill="#3B82F6" />
    <circle cx="98.38" cy="159.35" r="4.47" fill="#3B82F6" />
    <circle cx="108.54" cy="159.35" r="4.47" fill="#3B82F6" />
    <circle cx="139.03" cy="159.35" r="4.47" fill="#3B82F6" />
    <circle cx="260.97" cy="159.35" r="4.47" fill="#3B82F6" />
    <circle cx="281.30" cy="159.35" r="4.47" fill="#3B82F6" />
    <circle cx="301.62" cy="159.35" r="4.47" fill="#3B82F6" />
    <circle cx="311.78" cy="159.35" r="4.47" fill="#3B82F6" />
    <circle cx="362.59" cy="159.35" r="4.47" fill="#3B82F6" />
    <circle cx="372.76" cy="159.35" r="4.47" fill="#3B82F6" />
    <circle cx="37.41" cy="169.51" r="4.47" fill="#3B82F6" />
    <circle cx="108.54" cy="169.51" r="4.47" fill="#3B82F6" />
    <circle cx="260.97" cy="169.51" r="4.47" fill="#3B82F6" />
    <circle cx="301.62" cy="169.51" r="4.47" fill="#3B82F6" />
    <circle cx="311.78" cy="169.51" r="4.47" fill="#3B82F6" />
    <circle cx="321.95" cy="169.51" r="4.47" fill="#3B82F6" />
    <circle cx="342.27" cy="169.51" r="4.47" fill="#3B82F6" />
    <circle cx="382.92" cy="169.51" r="4.47" fill="#3B82F6" />
    <circle cx="17.08" cy="179.68" r="4.47" fill="#3B82F6" />
    <circle cx="27.24" cy="179.68" r="4.47" fill="#3B82F6" />
    <circle cx="37.41" cy="179.68" r="4.47" fill="#3B82F6" />
    <circle cx="78.05" cy="179.68" r="4.47" fill="#3B82F6" />
    <circle cx="88.22" cy="179.68" r="4.47" fill="#3B82F6" />
    <circle cx="98.38" cy="179.68" r="4.47" fill="#3B82F6" />
    <circle cx="108.54" cy="179.68" r="4.47" fill="#3B82F6" />
    <circle cx="118.70" cy="179.68" r="4.47" fill="#3B82F6" />
    <circle cx="128.86" cy="179.68" r="4.47" fill="#3B82F6" />
    <circle cx="139.03" cy="179.68" r="4.47" fill="#3B82F6" />
    <circle cx="271.14" cy="179.68" r="4.47" fill="#3B82F6" />
    <circle cx="291.46" cy="179.68" r="4.47" fill="#3B82F6" />
    <circle cx="352.43" cy="179.68" r="4.47" fill="#3B82F6" />
    <circle cx="362.59" cy="179.68" r="4.47" fill="#3B82F6" />
    <circle cx="372.76" cy="179.68" r="4.47" fill="#3B82F6" />
    <circle cx="17.08" cy="189.84" r="4.47" fill="#3B82F6" />
    <circle cx="67.89" cy="189.84" r="4.47" fill="#3B82F6" />
    <circle cx="98.38" cy="189.84" r="4.47" fill="#3B82F6" />
    <circle cx="118.70" cy="189.84" r="4.47" fill="#3B82F6" />
    <circle cx="139.03" cy="189.84" r="4.47" fill="#3B82F6" />
    <circle cx="281.30" cy="189.84" r="4.47" fill="#3B82F6" />
    <circle cx="291.46" cy="189.84" r="4.47" fill="#3B82F6" />
    <circle cx="301.62" cy="189.84" r="4.47" fill="#3B82F6" />
    <circle cx="321.95" cy="189.84" r="4.47" fill="#3B82F6" />
    <circle cx="382.92" cy="189.84" r="4.47" fill="#3B82F6" />
    <circle cx="57.73" cy="200.00" r="4.47" fill="#3B82F6" />
    <circle cx="78.05" cy="200.00" r="4.47" fill="#3B82F6" />
    <circle cx="98.38" cy="200.00" r="4.47" fill="#3B82F6" />
    <circle cx="128.86" cy="200.00" r="4.47" fill="#3B82F6" />
    <circle cx="271.14" cy="200.00" r="4.47" fill="#3B82F6" />
    <circle cx="281.30" cy="200.00" r="4.47" fill="#3B82F6" />
    <circle cx="291.46" cy="200.00" r="4.47" fill="#3B82F6" />
    <circle cx="311.78" cy="200.00" r="4.47" fill="#3B82F6" />
    <circle cx="352.43" cy="200.00" r="4.47" fill="#3B82F6" />
    <circle cx="372.76" cy="200.00" r="4.47" fill="#3B82F6" />
    <circle cx="382.92" cy="200.00" r="4.47" fill="#3B82F6" />
    <circle cx="17.08" cy="210.16" r="4.47" fill="#3B82F6" />
    <circle cx="27.24" cy="210.16" r="4.47" fill="#3B82F6" />
    <circle cx="37.41" cy="210.16" r="4.47" fill="#3B82F6" />
    <circle cx="47.57" cy="210.16" r="4.47" fill="#3B82F6" />
    <circle cx="67.89" cy="210.16" r="4.47" fill="#3B82F6" />
    <circle cx="88.22" cy="210.16" r="4.47" fill="#3B82F6" />
    <circle cx="98.38" cy="210.16" r="4.47" fill="#3B82F6" />
    <circle cx="108.54" cy="210.16" r="4.47" fill="#3B82F6" />
    <circle cx="128.86" cy="210.16" r="4.47" fill="#3B82F6" />
    <circle cx="260.97" cy="210.16" r="4.47" fill="#3B82F6" />
    <circle cx="281.30" cy="210.16" r="4.47" fill="#3B82F6" />
    <circle cx="321.95" cy="210.16" r="4.47" fill="#3B82F6" />
    <circle cx="332.11" cy="210.16" r="4.47" fill="#3B82F6" />
    <circle cx="342.27" cy="210.16" r="4.47" fill="#3B82F6" />
    <circle cx="352.43" cy="210.16" r="4.47" fill="#3B82F6" />
    <circle cx="27.24" cy="220.32" r="4.47" fill="#3B82F6" />
    <circle cx="37.41" cy="220.32" r="4.47" fill="#3B82F6" />
    <circle cx="78.05" cy="220.32" r="4.47" fill="#3B82F6" />
    <circle cx="88.22" cy="220.32" r="4.47" fill="#3B82F6" />
    <circle cx="108.54" cy="220.32" r="4.47" fill="#3B82F6" />
    <circle cx="139.03" cy="220.32" r="4.47" fill="#3B82F6" />
    <circle cx="291.46" cy="220.32" r="4.47" fill="#3B82F6" />
    <circle cx="301.62" cy="220.32" r="4.47" fill="#3B82F6" />
    <circle cx="311.78" cy="220.32" r="4.47" fill="#3B82F6" />
    <circle cx="342.27" cy="220.32" r="4.47" fill="#3B82F6" />
    <circle cx="372.76" cy="220.32" r="4.47" fill="#3B82F6" />
    <circle cx="17.08" cy="230.49" r="4.47" fill="#3B82F6" />
    <circle cx="37.41" cy="230.49" r="4.47" fill="#3B82F6" />
    <circle cx="47.57" cy="230.49" r="4.47" fill="#3B82F6" />
    <circle cx="57.73" cy="230.49" r="4.47" fill="#3B82F6" />
    <circle cx="67.89" cy="230.49" r="4.47" fill="#3B82F6" />
    <circle cx="88.22" cy="230.49" r="4.47" fill="#3B82F6" />
    <circle cx="108.54" cy="230.49" r="4.47" fill="#3B82F6" />
    <circle cx="271.14" cy="230.49" r="4.47" fill="#3B82F6" />
    <circle cx="332.11" cy="230.49" r="4.47" fill="#3B82F6" />
    <circle cx="352.43" cy="230.49" r="4.47" fill="#3B82F6" />
    <circle cx="362.59" cy="230.49" r="4.47" fill="#3B82F6" />
    <circle cx="372.76" cy="230.49" r="4.47" fill="#3B82F6" />
    <circle cx="17.08" cy="240.65" r="4.47" fill="#3B82F6" />
    <circle cx="37.41" cy="240.65" r="4.47" fill="#3B82F6" />
    <circle cx="47.57" cy="240.65" r="4.47" fill="#3B82F6" />
    <circle cx="57.73" cy="240.65" r="4.47" fill="#3B82F6" />
    <circle cx="67.89" cy="240.65" r="4.47" fill="#3B82F6" />
    <circle cx="78.05" cy="240.65" r="4.47" fill="#3B82F6" />
    <circle cx="98.38" cy="240.65" r="4.47" fill="#3B82F6" />
    <circle cx="118.70" cy="240.65" r="4.47" fill="#3B82F6" />
    <circle cx="128.86" cy="240.65" r="4.47" fill="#3B82F6" />
    <circle cx="271.14" cy="240.65" r="4.47" fill="#3B82F6" />
    <circle cx="321.95" cy="240.65" r="4.47" fill="#3B82F6" />
    <circle cx="342.27" cy="240.65" r="4.47" fill="#3B82F6" />
    <circle cx="352.43" cy="240.65" r="4.47" fill="#3B82F6" />
    <circle cx="57.73" cy="250.81" r="4.47" fill="#3B82F6" />
    <circle cx="108.54" cy="250.81" r="4.47" fill="#3B82F6" />
    <circle cx="128.86" cy="250.81" r="4.47" fill="#3B82F6" />
    <circle cx="260.97" cy="250.81" r="4.47" fill="#3B82F6" />
    <circle cx="291.46" cy="250.81" r="4.47" fill="#3B82F6" />
    <circle cx="301.62" cy="250.81" r="4.47" fill="#3B82F6" />
    <circle cx="321.95" cy="250.81" r="4.47" fill="#3B82F6" />
    <circle cx="352.43" cy="250.81" r="4.47" fill="#3B82F6" />
    <circle cx="362.59" cy="250.81" r="4.47" fill="#3B82F6" />
    <circle cx="372.76" cy="250.81" r="4.47" fill="#3B82F6" />
    <circle cx="17.08" cy="260.97" r="4.47" fill="#3B82F6" />
    <circle cx="37.41" cy="260.97" r="4.47" fill="#3B82F6" />
    <circle cx="47.57" cy="260.97" r="4.47" fill="#3B82F6" />
    <circle cx="57.73" cy="260.97" r="4.47" fill="#3B82F6" />
    <circle cx="67.89" cy="260.97" r="4.47" fill="#3B82F6" />
    <circle cx="78.05" cy="260.97" r="4.47" fill="#3B82F6" />
    <circle cx="98.38" cy="260.97" r="4.47" fill="#3B82F6" />
    <circle cx="118.70" cy="260.97" r="4.47" fill="#3B82F6" />
    <circle cx="139.03" cy="260.97" r="4.47" fill="#3B82F6" />
    <circle cx="159.35" cy="260.97" r="4.47" fill="#3B82F6" />
    <circle cx="179.68" cy="260.97" r="4.47" fill="#3B82F6" />
    <circle cx="189.84" cy="260.97" r="4.47" fill="#3B82F6" />
    <circle cx="200.00" cy="260.97" r="4.47" fill="#3B82F6" />
    <circle cx="220.32" cy="260.97" r="4.47" fill="#3B82F6" />
    <circle cx="230.49" cy="260.97" r="4.47" fill="#3B82F6" />
    <circle cx="240.65" cy="260.97" r="4.47" fill="#3B82F6" />
    <circle cx="250.81" cy="260.97" r="4.47" fill="#3B82F6" />
    <circle cx="260.97" cy="260.97" r="4.47" fill="#3B82F6" />
    <circle cx="281.30" cy="260.97" r="4.47" fill="#3B82F6" />
    <circle cx="301.62" cy="260.97" r="4.47" fill="#3B82F6" />
    <circle cx="311.78" cy="260.97" r="4.47" fill="#3B82F6" />
    <circle cx="332.11" cy="260.97" r="4.47" fill="#3B82F6" />
    <circle cx="342.27" cy="260.97" r="4.47" fill="#3B82F6" />
    <circle cx="362.59" cy="260.97" r="4.47" fill="#3B82F6" />
    <circle cx="372.76" cy="260.97" r="4.47" fill="#3B82F6" />
    <circle cx="382.92" cy="260.97" r="4.47" fill="#3B82F6" />
    <circle cx="27.24" cy="271.14" r="4.47" fill="#3B82F6" />
    <circle cx="37.41" cy="271.14" r="4.47" fill="#3B82F6" />
    <circle cx="47.57" cy="271.14" r="4.47" fill="#3B82F6" />
    <circle cx="57.73" cy="271.14" r="4.47" fill="#3B82F6" />
    <circle cx="67.89" cy="271.14" r="4.47" fill="#3B82F6" />
    <circle cx="98.38" cy="271.14" r="4.47" fill="#3B82F6" />
    <circle cx="128.86" cy="271.14" r="4.47" fill="#3B82F6" />
    <circle cx="139.03" cy="271.14" r="4.47" fill="#3B82F6" />
    <circle cx="169.51" cy="271.14" r="4.47" fill="#3B82F6" />
    <circle cx="189.84" cy="271.14" r="4.47" fill="#3B82F6" />
    <circle cx="200.00" cy="271.14" r="4.47" fill="#3B82F6" />
    <circle cx="210.16" cy="271.14" r="4.47" fill="#3B82F6" />
    <circle cx="220.32" cy="271.14" r="4.47" fill="#3B82F6" />
    <circle cx="230.49" cy="271.14" r="4.47" fill="#3B82F6" />
    <circle cx="250.81" cy="271.14" r="4.47" fill="#3B82F6" />
    <circle cx="260.97" cy="271.14" r="4.47" fill="#3B82F6" />
    <circle cx="281.30" cy="271.14" r="4.47" fill="#3B82F6" />
    <circle cx="311.78" cy="271.14" r="4.47" fill="#3B82F6" />
    <circle cx="332.11" cy="271.14" r="4.47" fill="#3B82F6" />
    <circle cx="342.27" cy="271.14" r="4.47" fill="#3B82F6" />
    <circle cx="362.59" cy="271.14" r="4.47" fill="#3B82F6" />
    <circle cx="382.92" cy="271.14" r="4.47" fill="#3B82F6" />
    <circle cx="27.24" cy="281.30" r="4.47" fill="#3B82F6" />
    <circle cx="57.73" cy="281.30" r="4.47" fill="#3B82F6" />
    <circle cx="67.89" cy="281.30" r="4.47" fill="#3B82F6" />
    <circle cx="78.05" cy="281.30" r="4.47" fill="#3B82F6" />
    <circle cx="88.22" cy="281.30" r="4.47" fill="#3B82F6" />
    <circle cx="108.54" cy="281.30" r="4.47" fill="#3B82F6" />
    <circle cx="139.03" cy="281.30" r="4.47" fill="#3B82F6" />
    <circle cx="149.19" cy="281.30" r="4.47" fill="#3B82F6" />
    <circle cx="169.51" cy="281.30" r="4.47" fill="#3B82F6" />
    <circle cx="189.84" cy="281.30" r="4.47" fill="#3B82F6" />
    <circle cx="250.81" cy="281.30" r="4.47" fill="#3B82F6" />
    <circle cx="271.14" cy="281.30" r="4.47" fill="#3B82F6" />
    <circle cx="332.11" cy="281.30" r="4.47" fill="#3B82F6" />
    <circle cx="342.27" cy="281.30" r="4.47" fill="#3B82F6" />
    <circle cx="352.43" cy="281.30" r="4.47" fill="#3B82F6" />
    <circle cx="362.59" cy="281.30" r="4.47" fill="#3B82F6" />
    <circle cx="372.76" cy="281.30" r="4.47" fill="#3B82F6" />
    <circle cx="17.08" cy="291.46" r="4.47" fill="#3B82F6" />
    <circle cx="37.41" cy="291.46" r="4.47" fill="#3B82F6" />
    <circle cx="57.73" cy="291.46" r="4.47" fill="#3B82F6" />
    <circle cx="88.22" cy="291.46" r="4.47" fill="#3B82F6" />
    <circle cx="98.38" cy="291.46" r="4.47" fill="#3B82F6" />
    <circle cx="108.54" cy="291.46" r="4.47" fill="#3B82F6" />
    <circle cx="118.70" cy="291.46" r="4.47" fill="#3B82F6" />
    <circle cx="128.86" cy="291.46" r="4.47" fill="#3B82F6" />
    <circle cx="149.19" cy="291.46" r="4.47" fill="#3B82F6" />
    <circle cx="179.68" cy="291.46" r="4.47" fill="#3B82F6" />
    <circle cx="220.32" cy="291.46" r="4.47" fill="#3B82F6" />
    <circle cx="230.49" cy="291.46" r="4.47" fill="#3B82F6" />
    <circle cx="240.65" cy="291.46" r="4.47" fill="#3B82F6" />
    <circle cx="250.81" cy="291.46" r="4.47" fill="#3B82F6" />
    <circle cx="281.30" cy="291.46" r="4.47" fill="#3B82F6" />
    <circle cx="291.46" cy="291.46" r="4.47" fill="#3B82F6" />
    <circle cx="311.78" cy="291.46" r="4.47" fill="#3B82F6" />
    <circle cx="332.11" cy="291.46" r="4.47" fill="#3B82F6" />
    <circle cx="382.92" cy="291.46" r="4.47" fill="#3B82F6" />
    <circle cx="47.57" cy="301.62" r="4.47" fill="#3B82F6" />
    <circle cx="57.73" cy="301.62" r="4.47" fill="#3B82F6" />
    <circle cx="67.89" cy="301.62" r="4.47" fill="#3B82F6" />
    <circle cx="78.05" cy="301.62" r="4.47" fill="#3B82F6" />
    <circle cx="88.22" cy="301.62" r="4.47" fill="#3B82F6" />
    <circle cx="98.38" cy="301.62" r="4.47" fill="#3B82F6" />
    <circle cx="128.86" cy="301.62" r="4.47" fill="#3B82F6" />
    <circle cx="159.35" cy="301.62" r="4.47" fill="#3B82F6" />
    <circle cx="189.84" cy="301.62" r="4.47" fill="#3B82F6" />
    <circle cx="200.00" cy="301.62" r="4.47" fill="#3B82F6" />
    <circle cx="230.49" cy="301.62" r="4.47" fill="#3B82F6" />
    <circle cx="240.65" cy="301.62" r="4.47" fill="#3B82F6" />
    <circle cx="271.14" cy="301.62" r="4.47" fill="#3B82F6" />
    <circle cx="301.62" cy="301.62" r="4.47" fill="#3B82F6" />
    <circle cx="311.78" cy="301.62" r="4.47" fill="#3B82F6" />
    <circle cx="321.95" cy="301.62" r="4.47" fill="#3B82F6" />
    <circle cx="332.11" cy="301.62" r="4.47" fill="#3B82F6" />
    <circle cx="342.27" cy="301.62" r="4.47" fill="#3B82F6" />
    <circle cx="362.59" cy="301.62" r="4.47" fill="#3B82F6" />
    <circle cx="98.38" cy="311.78" r="4.47" fill="#3B82F6" />
    <circle cx="108.54" cy="311.78" r="4.47" fill="#3B82F6" />
    <circle cx="128.86" cy="311.78" r="4.47" fill="#3B82F6" />
    <circle cx="169.51" cy="311.78" r="4.47" fill="#3B82F6" />
    <circle cx="210.16" cy="311.78" r="4.47" fill="#3B82F6" />
    <circle cx="250.81" cy="311.78" r="4.47" fill="#3B82F6" />
    <circle cx="260.97" cy="311.78" r="4.47" fill="#3B82F6" />
    <circle cx="271.14" cy="311.78" r="4.47" fill="#3B82F6" />
    <circle cx="301.62" cy="311.78" r="4.47" fill="#3B82F6" />
    <circle cx="342.27" cy="311.78" r="4.47" fill="#3B82F6" />
    <circle cx="352.43" cy="311.78" r="4.47" fill="#3B82F6" />
    <circle cx="362.59" cy="311.78" r="4.47" fill="#3B82F6" />
    <circle cx="372.76" cy="311.78" r="4.47" fill="#3B82F6" />
    <circle cx="382.92" cy="311.78" r="4.47" fill="#3B82F6" />
    <circle cx="98.38" cy="321.95" r="4.47" fill="#3B82F6" />
    <circle cx="108.54" cy="321.95" r="4.47" fill="#3B82F6" />
    <circle cx="128.86" cy="321.95" r="4.47" fill="#3B82F6" />
    <circle cx="139.03" cy="321.95" r="4.47" fill="#3B82F6" />
    <circle cx="149.19" cy="321.95" r="4.47" fill="#3B82F6" />
    <circle cx="200.00" cy="321.95" r="4.47" fill="#3B82F6" />
    <circle cx="220.32" cy="321.95" r="4.47" fill="#3B82F6" />
    <circle cx="230.49" cy="321.95" r="4.47" fill="#3B82F6" />
    <circle cx="260.97" cy="321.95" r="4.47" fill="#3B82F6" />
    <circle cx="281.30" cy="321.95" r="4.47" fill="#3B82F6" />
    <circle cx="301.62" cy="321.95" r="4.47" fill="#3B82F6" />
    <circle cx="321.95" cy="321.95" r="4.47" fill="#3B82F6" />
    <circle cx="342.27" cy="321.95" r="4.47" fill="#3B82F6" />
    <circle cx="352.43" cy="321.95" r="4.47" fill="#3B82F6" />
    <circle cx="372.76" cy="321.95" r="4.47" fill="#3B82F6" />
    <circle cx="382.92" cy="321.95" r="4.47" fill="#3B82F6" />
    <circle cx="108.54" cy="332.11" r="4.47" fill="#3B82F6" />
    <circle cx="118.70" cy="332.11" r="4.47" fill="#3B82F6" />
    <circle cx="128.86" cy="332.11" r="4.47" fill="#3B82F6" />
    <circle cx="139.03" cy="332.11" r="4.47" fill="#3B82F6" />
    <circle cx="149.19" cy="332.11" r="4.47" fill="#3B82F6" />
    <circle cx="159.35" cy="332.11" r="4.47" fill="#3B82F6" />
    <circle cx="189.84" cy="332.11" r="4.47" fill="#3B82F6" />
    <circle cx="230.49" cy="332.11" r="4.47" fill="#3B82F6" />
    <circle cx="260.97" cy="332.11" r="4.47" fill="#3B82F6" />
    <circle cx="301.62" cy="332.11" r="4.47" fill="#3B82F6" />
    <circle cx="342.27" cy="332.11" r="4.47" fill="#3B82F6" />
    <circle cx="352.43" cy="332.11" r="4.47" fill="#3B82F6" />
    <circle cx="372.76" cy="332.11" r="4.47" fill="#3B82F6" />
    <circle cx="118.70" cy="342.27" r="4.47" fill="#3B82F6" />
    <circle cx="128.86" cy="342.27" r="4.47" fill="#3B82F6" />
    <circle cx="139.03" cy="342.27" r="4.47" fill="#3B82F6" />
    <circle cx="149.19" cy="342.27" r="4.47" fill="#3B82F6" />
    <circle cx="159.35" cy="342.27" r="4.47" fill="#3B82F6" />
    <circle cx="189.84" cy="342.27" r="4.47" fill="#3B82F6" />
    <circle cx="210.16" cy="342.27" r="4.47" fill="#3B82F6" />
    <circle cx="220.32" cy="342.27" r="4.47" fill="#3B82F6" />
    <circle cx="240.65" cy="342.27" r="4.47" fill="#3B82F6" />
    <circle cx="260.97" cy="342.27" r="4.47" fill="#3B82F6" />
    <circle cx="281.30" cy="342.27" r="4.47" fill="#3B82F6" />
    <circle cx="301.62" cy="342.27" r="4.47" fill="#3B82F6" />
    <circle cx="311.78" cy="342.27" r="4.47" fill="#3B82F6" />
    <circle cx="321.95" cy="342.27" r="4.47" fill="#3B82F6" />
    <circle cx="332.11" cy="342.27" r="4.47" fill="#3B82F6" />
    <circle cx="342.27" cy="342.27" r="4.47" fill="#3B82F6" />
    <circle cx="352.43" cy="342.27" r="4.47" fill="#3B82F6" />
    <circle cx="372.76" cy="342.27" r="4.47" fill="#3B82F6" />
    <circle cx="382.92" cy="342.27" r="4.47" fill="#3B82F6" />
    <circle cx="98.38" cy="352.43" r="4.47" fill="#3B82F6" />
    <circle cx="108.54" cy="352.43" r="4.47" fill="#3B82F6" />
    <circle cx="118.70" cy="352.43" r="4.47" fill="#3B82F6" />
    <circle cx="128.86" cy="352.43" r="4.47" fill="#3B82F6" />
    <circle cx="169.51" cy="352.43" r="4.47" fill="#3B82F6" />
    <circle cx="220.32" cy="352.43" r="4.47" fill="#3B82F6" />
    <circle cx="260.97" cy="352.43" r="4.47" fill="#3B82F6" />
    <circle cx="271.14" cy="352.43" r="4.47" fill="#3B82F6" />
    <circle cx="281.30" cy="352.43" r="4.47" fill="#3B82F6" />
    <circle cx="291.46" cy="352.43" r="4.47" fill="#3B82F6" />
    <circle cx="301.62" cy="352.43" r="4.47" fill="#3B82F6" />
    <circle cx="321.95" cy="352.43" r="4.47" fill="#3B82F6" />
    <circle cx="342.27" cy="352.43" r="4.47" fill="#3B82F6" />
    <circle cx="352.43" cy="352.43" r="4.47" fill="#3B82F6" />
    <circle cx="98.38" cy="362.59" r="4.47" fill="#3B82F6" />
    <circle cx="118.70" cy="362.59" r="4.47" fill="#3B82F6" />
    <circle cx="139.03" cy="362.59" r="4.47" fill="#3B82F6" />
    <circle cx="149.19" cy="362.59" r="4.47" fill="#3B82F6" />
    <circle cx="159.35" cy="362.59" r="4.47" fill="#3B82F6" />
    <circle cx="179.68" cy="362.59" r="4.47" fill="#3B82F6" />
    <circle cx="189.84" cy="362.59" r="4.47" fill="#3B82F6" />
    <circle cx="200.00" cy="362.59" r="4.47" fill="#3B82F6" />
    <circle cx="210.16" cy="362.59" r="4.47" fill="#3B82F6" />
    <circle cx="250.81" cy="362.59" r="4.47" fill="#3B82F6" />
    <circle cx="260.97" cy="362.59" r="4.47" fill="#3B82F6" />
    <circle cx="271.14" cy="362.59" r="4.47" fill="#3B82F6" />
    <circle cx="291.46" cy="362.59" r="4.47" fill="#3B82F6" />
    <circle cx="301.62" cy="362.59" r="4.47" fill="#3B82F6" />
    <circle cx="321.95" cy="362.59" r="4.47" fill="#3B82F6" />
    <circle cx="332.11" cy="362.59" r="4.47" fill="#3B82F6" />
    <circle cx="342.27" cy="362.59" r="4.47" fill="#3B82F6" />
    <circle cx="352.43" cy="362.59" r="4.47" fill="#3B82F6" />
    <circle cx="372.76" cy="362.59" r="4.47" fill="#3B82F6" />
    <circle cx="118.70" cy="372.76" r="4.47" fill="#3B82F6" />
    <circle cx="128.86" cy="372.76" r="4.47" fill="#3B82F6" />
    <circle cx="139.03" cy="372.76" r="4.47" fill="#3B82F6" />
    <circle cx="159.35" cy="372.76" r="4.47" fill="#3B82F6" />
    <circle cx="169.51" cy="372.76" r="4.47" fill="#3B82F6" />
    <circle cx="179.68" cy="372.76" r="4.47" fill="#3B82F6" />
    <circle cx="200.00" cy="372.76" r="4.47" fill="#3B82F6" />
    <circle cx="220.32" cy="372.76" r="4.47" fill="#3B82F6" />
    <circle cx="230.49" cy="372.76" r="4.47" fill="#3B82F6" />
    <circle cx="240.65" cy="372.76" r="4.47" fill="#3B82F6" />
    <circle cx="271.14" cy="372.76" r="4.47" fill="#3B82F6" />
    <circle cx="281.30" cy="372.76" r="4.47" fill="#3B82F6" />
    <circle cx="332.11" cy="372.76" r="4.47" fill="#3B82F6" />
    <circle cx="352.43" cy="372.76" r="4.47" fill="#3B82F6" />
    <circle cx="362.59" cy="372.76" r="4.47" fill="#3B82F6" />
    <circle cx="139.03" cy="382.92" r="4.47" fill="#3B82F6" />
    <circle cx="179.68" cy="382.92" r="4.47" fill="#3B82F6" />
    <circle cx="210.16" cy="382.92" r="4.47" fill="#3B82F6" />
    <circle cx="220.32" cy="382.92" r="4.47" fill="#3B82F6" />
    <circle cx="240.65" cy="382.92" r="4.47" fill="#3B82F6" />
    <circle cx="271.14" cy="382.92" r="4.47" fill="#3B82F6" />
    <circle cx="281.30" cy="382.92" r="4.47" fill="#3B82F6" />
    <circle cx="311.78" cy="382.92" r="4.47" fill="#3B82F6" />
    <circle cx="332.11" cy="382.92" r="4.47" fill="#3B82F6" />
    <circle cx="362.59" cy="382.92" r="4.47" fill="#3B82F6" />
    <circle cx="372.76" cy="382.92" r="4.47" fill="#3B82F6" />
    <circle cx="382.92" cy="382.92" r="4.47" fill="#3B82F6" />
    <rect x="17.08" y="17.08" width="60.97" height="60.97" rx="22.36" fill="none" stroke="#3B82F6" stroke-width="10.16" />
    <rect x="32.32" y="32.32" width="30.49" height="30.49" rx="15.24" fill="#ffffff" />
    <rect x="321.95" y="17.08" width="60.97" height="60.97" rx="22.36" fill="none" stroke="#3B82F6" stroke-width="10.16" />
    <rect x="337.19" y="32.32" width="30.49" height="30.49" rx="15.24" fill="#ffffff" />
    <rect x="17.08" y="321.95" width="60.97" height="60.97" rx="22.36" fill="none" stroke="#3B82F6" stroke-width="10.16" />
    <rect x="32.32" y="337.19" width="30.49" height="30.49" rx="15.24" fill="#ffffff" />
    <rect x="142.08" y="142.08" width="115.85" height="115.85" rx="32.44" fill="#0B0E23" stroke="#3B82F6" stroke-width="3.56" />
    <text x="200.00" y="202.00" font-family="system-ui, -apple-system, sans-serif" font-size="52.13" font-weight="900" fill="#60A5FA" text-anchor="middle" dominant-baseline="middle">AT</text>
    <line x1="12" y1="398" x2="388" y2="398" stroke="#3B82F6" stroke-opacity="0.15" stroke-width="1" />
    <text x="200" y="418" font-family="system-ui, -apple-system, sans-serif" font-size="11" font-weight="800" fill="#60A5FA" text-anchor="middle" letter-spacing="0.04em">ALPHA TECH NUTRITION</text>
    <text x="200" y="434" font-family="ui-monospace, monospace" font-size="8.5" font-weight="700" fill="#60A5FA" opacity="0.75" text-anchor="middle" letter-spacing="0.04em">OFFICIAL AUTHENTICITY PORTAL</text>
  </svg>